<?xml version="1.0" encoding="UTF-8"?>
<svg width="1440" height="320" viewBox="0 0 1440 320" xmlns="http://www.w3.org/2000/svg" preserveAspectRatio="none">
  <path fill="#f58c2d" fill-opacity="0.3" d="M0,160L80,154.7C160,149,320,139,480,138.7C640,139,800,149,960,138.7C1120,128,1280,96,1360,80L1440,64L1440,320L1360,320C1280,320,1120,320,960,320C800,320,640,320,480,320C320,320,160,320,80,320L0,320Z" />
  <path fill="#4a148c" fill-opacity="0.1" d="M0,96L120,122.7C240,149,480,203,720,202.7C960,203,1200,149,1320,122.7L1440,96L1440,0L1320,0C1200,0,960,0,720,0C480,0,240,0,120,0L0,0Z" />
</svg>
